<?xml version="1.0" encoding="UTF-8" standalone="no"?>
<!-- Created with Inkscape (http://www.inkscape.org/) -->

<svg
   xmlns:dc="http://purl.org/dc/elements/1.1/"
   xmlns:cc="http://creativecommons.org/ns#"
   xmlns:rdf="http://www.w3.org/1999/02/22-rdf-syntax-ns#"
   xmlns:svg="http://www.w3.org/2000/svg"
   xmlns="http://www.w3.org/2000/svg"
   xmlns:sodipodi="http://sodipodi.sourceforge.net/DTD/sodipodi-0.dtd"
   xmlns:inkscape="http://www.inkscape.org/namespaces/inkscape"
   width="105.83334mm"
   height="9.1821899mm"
   viewBox="0 0 105.83334 9.1821899"
   version="1.1"
   id="svg6581"
   inkscape:version="0.92.4 (5da689c313, 2019-01-14)"
   sodipodi:docname="Jena Lichtstadt Logo 2020.svg">
  <defs
     id="defs6575" />
  <sodipodi:namedview
     id="base"
     pagecolor="#ffffff"
     bordercolor="#666666"
     borderopacity="1.0"
     inkscape:pageopacity="0.0"
     inkscape:pageshadow="2"
     inkscape:zoom="1.8749334"
     inkscape:cx="248.75087"
     inkscape:cy="6.030918"
     inkscape:document-units="mm"
     inkscape:current-layer="svg6581"
     showgrid="false"
     fit-margin-top="0"
     fit-margin-left="0"
     fit-margin-right="0"
     fit-margin-bottom="0"
     inkscape:window-width="1920"
     inkscape:window-height="1001"
     inkscape:window-x="-9"
     inkscape:window-y="-9"
     inkscape:window-maximized="1" />
  <metadata
     id="metadata6578">
    <rdf:RDF>
      <cc:Work
         rdf:about="">
        <dc:format>image/svg+xml</dc:format>
        <dc:type
           rdf:resource="http://purl.org/dc/dcmitype/StillImage" />
        <dc:title></dc:title>
      </cc:Work>
    </rdf:RDF>
  </metadata>
  <path
     style="clip-rule:nonzero;fill:#11306e;fill-opacity:1;fill-rule:nonzero;stroke:none;stroke-width:0.62153494"
     d="m 8.78405,8.35179 c 0,0.32775 -0.26708,0.59724 -0.59483,0.59724 H 0.59483 C 0.26708,8.94903 0,8.67954 0,8.35179 V 0.75983 C 0,0.43207 0.26708,0.16256 0.59483,0.16256 h 7.59439 c 0.32775,0 0.59483,0.26951 0.59483,0.59727 z m 0,0"
     id="path760"
     inkscape:connector-curvature="0" />
  <path
     style="clip-rule:nonzero;fill:#11306e;fill-opacity:1;fill-rule:nonzero;stroke:none;stroke-width:0.62153494"
     d="m 104.93744,7.3418 c -0.50013,0 -0.89344,0.40788 -0.89344,0.89587 0,0.50015 0.39331,0.90803 0.89344,0.90803 0.50015,0 0.89589,-0.40788 0.89589,-0.90803 0,-0.48799 -0.39574,-0.89587 -0.89589,-0.89587"
     id="path764"
     inkscape:connector-curvature="0" />
  <path
     style="clip-rule:nonzero;fill:#11306e;fill-opacity:1;fill-rule:nonzero;stroke:none;stroke-width:0.62153494"
     d="m 13.70291,6.49203 c 0,0.976 -0.14324,1.26493 -0.67251,1.26493 -0.539,0 -0.77693,-0.35448 -0.77693,-1.13381 v -0.0777 c 0,-0.13355 -0.0388,-0.17231 -0.14571,-0.17231 H 10.8817 c -0.13108,0 -0.17001,0.0802 -0.17001,0.31562 0,0.35689 0.0388,0.66039 0.15786,1.00271 0.32775,1.04156 0.98814,1.49072 2.18751,1.49072 0.81819,0 1.4373,-0.23794 1.84759,-0.72594 0.42245,-0.47343 0.56812,-1.04156 0.56812,-2.20208 V 0.42485 c 0,-0.22337 -0.0412,-0.26221 -0.26464,-0.26221 h -3.14894 c -0.23794,0 -0.2355,0.0583 -0.30106,0.25978 l -0.24765,0.8789 c -0.0606,0.22578 0.005,0.25736 0.2428,0.25736 h 1.94957 z m 0,0"
     id="path768"
     inkscape:connector-curvature="0" />
  <path
     style="clip-rule:nonzero;fill:#11306e;fill-opacity:1;fill-rule:nonzero;stroke:none;stroke-width:0.62153494"
     d="m 21.38227,1.5586 c 0.17002,0 0.23549,-0.0388 0.27677,-0.20879 l 0.25007,-0.88375 c 0.0268,-0.0802 0.0268,-0.11893 0.0268,-0.16015 0,-0.10448 -0.0534,-0.14324 -0.2525,-0.14324 h -4.2852 c -0.23792,0 -0.2622,0.0388 -0.2622,0.26465 v 8.2669 c 0,0.23793 0.0243,0.26464 0.2622,0.26464 h 4.18081 c 0.23792,0 0.26463,-0.0268 0.26463,-0.26464 V 7.82503 c 0,-0.22578 -0.0268,-0.26462 -0.26463,-0.26462 H 18.9035 V 5.06697 h 2.13411 c 0.22335,0 0.26462,-0.0389 0.26462,-0.26221 V 3.93317 c 0,-0.23794 -0.0412,-0.26465 -0.26462,-0.26465 H 18.9035 V 1.55871 Z m 0,0"
     id="path772"
     inkscape:connector-curvature="0" />
  <path
     style="clip-rule:nonzero;fill:#11306e;fill-opacity:1;fill-rule:nonzero;stroke:none;stroke-width:0.62153494"
     d="M 26.82797,4.15884 24.79829,0.38593 C 24.69152,0.17472 24.66474,0.16256 24.44139,0.16256 h -1.01728 c -0.2355,0 -0.26221,0.0388 -0.26221,0.26465 v 8.2669 c 0,0.23794 0.0268,0.26464 0.26221,0.26464 h 0.97843 c 0.22337,0 0.26222,-0.0268 0.26222,-0.26464 V 4.06659 c 0,-0.34476 -0.0123,-0.50256 -0.0268,-0.88375 L 24.62566,2.74583 C 24.849,3.4062 24.98253,3.69512 25.44383,4.5546 l 2.21422,4.15165 c 0.11892,0.2258 0.1457,0.2525 0.36903,0.2525 h 0.83034 c 0.23793,0 0.26464,-0.0268 0.26464,-0.26464 v -8.2669 c 0,-0.23794 -0.0268,-0.26465 -0.26464,-0.26465 h -0.96144 c -0.23793,0 -0.26464,0.0388 -0.26464,0.26465 V 5.67384 L 27.64544,6.123 C 27.38082,5.35822 27.10403,4.67113 26.82725,4.15884"
     id="path776"
     inkscape:connector-curvature="0" />
  <path
     style="clip-rule:nonzero;fill:#11306e;fill-opacity:1;fill-rule:nonzero;stroke:none;stroke-width:0.62153494"
     d="m 35.192,8.73296 c 0.05338,0.21122 0.06554,0.22579 0.276784,0.22579 h 1.410575 c 0.184516,0 0.252506,-0.0412 0.252506,-0.1457 0,-0.0388 0,-0.0802 -0.02678,-0.15786 L 34.572804,0.38586 C 34.507264,0.17465 34.492644,0.16249 34.28147,0.16249 h -1.31833 c -0.13108,0 -0.1457,0.0123 -0.19667,0.0388 -0.0268,0.0123 -0.0534,0.0389 -0.0534,0.0655 -0.0141,0.0141 -0.0141,0.0534 -0.0412,0.11893 l -2.53226,8.26933 c 0,0.0268 -0.0123,0.0509 -0.0123,0.0655 -0.0123,0.0388 -0.0123,0.0655 -0.0123,0.0923 0,0.10448 0.0655,0.1457 0.25007,0.1457 h 1.27948 c 0.21123,0 0.22337,-0.0141 0.27679,-0.22579 L 32.46283,6.6375 h 2.175366 z M 33.17444,3.24839 c 0.13108,-0.54141 0.21122,-0.96386 0.32777,-1.74077 0.16015,0.93472 0.19907,1.16052 0.31805,1.7262 l 0.48799,2.20208 h -1.64851 z m 0,0"
     id="path780"
     inkscape:connector-curvature="0" />
  <path
     style="clip-rule:nonzero;fill:#11306e;fill-opacity:1;fill-rule:nonzero;stroke:none;stroke-width:0.62153494"
     d="m 44.345066,8.05802 h 3.243638 c 0.145703,0 0.184516,0.0123 0.184516,0.0923 0,0.0123 -0.01409,0.0655 -0.03876,0.10447 l -0.199087,0.58026 c -0.03876,0.0923 -0.104477,0.13355 -0.196656,0.13355 h -3.877315 c -0.145703,0 -0.172307,-0.0268 -0.172307,-0.17231 V 0.35458 c 0,-0.15786 0.02678,-0.18451 0.172307,-0.18451 h 0.711375 c 0.145703,0 0.172307,0.0268 0.172307,0.18451 z m 0,0"
     id="path784"
     inkscape:connector-curvature="0" />
  <path
     style="clip-rule:nonzero;fill:#11306e;fill-opacity:1;fill-rule:nonzero;stroke:none;stroke-width:0.62153494"
     d="m 50.757075,1.01476 v 7.12337 h 1.133809 c 0.15786,0 0.172308,0.0123 0.172308,0.17002 v 0.48801 c 0,0.1457 -0.01409,0.1723 -0.172308,0.1723 h -3.323747 c -0.15786,0 -0.184517,-0.0268 -0.184517,-0.1723 V 8.30815 c 0,-0.15786 0.02678,-0.17002 0.184517,-0.17002 h 1.133826 V 1.01476 h -1.133826 c -0.15786,0 -0.184517,-0.0268 -0.184517,-0.18453 V 0.35438 c 0,-0.15786 0.02678,-0.18452 0.184517,-0.18452 h 3.323747 c 0.15786,0 0.172308,0.0268 0.172308,0.18452 v 0.47585 c 0,0.15786 -0.01409,0.18453 -0.172308,0.18453 z m 0,0"
     id="path788"
     inkscape:connector-curvature="0" />
  <path
     style="clip-rule:nonzero;fill:#11306e;fill-opacity:1;fill-rule:nonzero;stroke:none;stroke-width:0.62153494"
     d="M 58.264063,1.06816 57.89503,1.55617 c -0.02678,0.0243 -0.06554,0.0509 -0.104477,0.0509 -0.02678,0 -0.08016,-0.0123 -0.12139,-0.0509 L 57.353531,1.31824 c -0.407882,-0.33019 -0.764776,-0.4613 -1.160519,-0.4613 -1.172657,0 -1.687376,1.0537 -1.687376,3.50828 0,2.58568 0.619107,3.91615 1.820906,3.91615 0.422451,0 0.934722,-0.25006 1.422731,-0.67251 0.05338,-0.0509 0.106767,-0.0777 0.145704,-0.0777 0.02678,0 0.05338,0.0123 0.104476,0.0777 l 0.318046,0.43702 c 0.02678,0.0388 0.03876,0.0631 0.03876,0.10448 0,0.0534 -0.06554,0.14323 -0.184516,0.25007 C 57.657041,8.88844 56.984515,9.1385 56.27314,9.1385 54.372124,9.1385 53.371845,7.51668 53.371845,4.48427 53.371845,1.54169 54.333276,0 56.180891,0 c 0.711375,0 1.47615,0.30348 2.002991,0.79149 0.08016,0.0655 0.106767,0.13108 0.106767,0.18451 0,0.0243 -0.01409,0.0655 -0.02678,0.0923"
     id="path792"
     inkscape:connector-curvature="0" />
  <path
     style="clip-rule:nonzero;fill:#11306e;fill-opacity:1;fill-rule:nonzero;stroke:none;stroke-width:0.62153494"
     d="m 61.165358,3.95491 h 3.270347 v -3.5981 c 0,-0.16015 0.02678,-0.18695 0.170017,-0.18695 h 0.713788 c 0.145704,0 0.170017,0.0268 0.170017,0.18695 v 8.43927 c 0,0.14571 -0.02431,0.17231 -0.170017,0.17231 h -0.713788 c -0.143237,0 -0.170017,-0.0268 -0.170017,-0.17231 V 4.82652 h -3.270347 v 3.96956 c 0,0.14571 -0.02678,0.17231 -0.172307,0.17231 h -0.711357 c -0.145703,0 -0.172307,-0.0268 -0.172307,-0.17231 V 0.35681 c 0,-0.16015 0.02678,-0.18695 0.172307,-0.18695 h 0.711357 c 0.145704,0 0.172307,0.0268 0.172307,0.18695 z m 0,0"
     id="path796"
     inkscape:connector-curvature="0" />
  <path
     style="clip-rule:nonzero;fill:#11306e;fill-opacity:1;fill-rule:nonzero;stroke:none;stroke-width:0.62153494"
     d="m 70.204329,1.06816 v 7.72792 c 0,0.14571 -0.01409,0.17231 -0.172308,0.17231 h -0.699235 c -0.15786,0 -0.184499,-0.0268 -0.184499,-0.17231 V 1.06816 h -1.871893 c -0.145704,0 -0.172307,-0.0268 -0.172307,-0.1723 V 0.35688 c 0,-0.16015 0.02678,-0.18452 0.172307,-0.18452 h 5.011124 c 0.13108,0 0.172307,0.0243 0.172307,0.1043 0,0.0123 0,0.0509 -0.02678,0.10448 l -0.184516,0.55355 c -0.02678,0.0923 -0.09232,0.13354 -0.184517,0.13354 z m 0,0"
     id="path800"
     inkscape:connector-curvature="0" />
  <path
     style="clip-rule:nonzero;fill:#11306e;fill-opacity:1;fill-rule:nonzero;stroke:none;stroke-width:0.62153494"
     d="m 73.207599,8.28137 0.237936,-0.61911 c 0.02678,-0.0388 0.06554,-0.0655 0.09232,-0.0655 0.02678,0 0.05338,0 0.09232,0.0123 0.02678,0.0268 0.06554,0.0388 0.131081,0.0802 0.648248,0.34235 1.306204,0.52686 1.874324,0.52686 0.937153,0 1.556261,-0.56812 1.556261,-1.45187 0,-0.77691 -0.342342,-1.17266 -1.60968,-1.8986 C 74.475044,4.23199 74.263818,4.08873 73.960343,3.73184 73.63014,3.3361 73.445624,2.8481 73.445624,2.32125 c 0,-1.35961 1.041559,-2.32104 2.532262,-2.32104 0.687097,0 1.478582,0.20879 2.017561,0.54141 0.08016,0.0365 0.118924,0.0899 0.118924,0.14324 v 0.0534 c -0.01233,0 -0.01233,0.0268 -0.02431,0.0509 l -0.225779,0.56812 c -0.01233,0.0534 -0.06554,0.0802 -0.104477,0.0802 -0.02907,0 -0.06801,-0.0141 -0.106767,-0.0268 L 77.203895,1.18732 c -0.354481,-0.17231 -0.842473,-0.2792 -1.250354,-0.2792 -0.871614,0 -1.398454,0.47585 -1.398454,1.26734 0,0.65795 0.250074,0.976 1.238215,1.55626 l 0.818195,0.48801 c 0.779346,0.4613 0.990572,0.63368 1.267338,1.02942 0.276783,0.39574 0.42002,0.86918 0.42002,1.38388 0,1.50529 -1.08039,2.50557 -2.702208,2.50557 -0.738067,0 -1.60968,-0.22336 -2.243358,-0.5657 -0.118924,-0.068 -0.172307,-0.13355 -0.172307,-0.19909 0,-0.0243 0.01409,-0.0655 0.02678,-0.0923"
     id="path804"
     inkscape:connector-curvature="0" />
  <path
     style="clip-rule:nonzero;fill:#11306e;fill-opacity:1;fill-rule:nonzero;stroke:none;stroke-width:0.62153494"
     d="m 82.613171,1.06816 v 7.72792 c 0,0.14571 -0.01409,0.17231 -0.172307,0.17231 h -0.699218 c -0.15786,0 -0.184534,-0.0268 -0.184534,-0.17231 V 1.06816 h -1.871876 c -0.145703,0 -0.172307,-0.0268 -0.172307,-0.1723 V 0.35688 c 0,-0.16015 0.02678,-0.18452 0.172307,-0.18452 h 5.011125 c 0.133546,0 0.172307,0.0243 0.172307,0.1043 0,0.0123 0,0.0509 -0.02678,0.10448 l -0.184534,0.55355 c -0.02678,0.0923 -0.09232,0.13354 -0.184517,0.13354 z m 0,0"
     id="path808"
     inkscape:connector-curvature="0" />
  <path
     style="clip-rule:nonzero;fill:#11306e;fill-opacity:1;fill-rule:nonzero;stroke:none;stroke-width:0.62153494"
     d="m 89.236406,6.32936 h -2.600251 l -0.723514,2.49343 c -0.02678,0.10448 -0.08016,0.14571 -0.18693,0.14571 h -0.776933 c -0.118923,0 -0.172307,-0.0268 -0.172307,-0.0923 0,-0.0141 0,-0.0412 0.01409,-0.068 l 0.01233,-0.0509 2.585681,-8.44171 c 0.03876,-0.13108 0.05321,-0.1457 0.184411,-0.1457 h 0.764775 c 0.145704,0 0.145704,0.0141 0.184517,0.1457 l 2.585681,8.44171 c 0.02678,0.0655 0.02678,0.0923 0.02678,0.11893 0,0.0655 -0.03876,0.0923 -0.172307,0.0923 h -0.815763 c -0.106767,0 -0.172307,-0.0412 -0.199087,-0.14571 z M 86.87409,5.44561 h 2.124381 L 88.233695,2.62201 88.126928,2.25539 88.061388,1.97863 87.995848,1.71398 87.930308,1.39837 c -0.08016,0.40788 -0.172307,0.7502 -0.291354,1.21392 z m 0,0"
     id="path812"
     inkscape:connector-curvature="0" />
  <path
     style="clip-rule:nonzero;fill:#11306e;fill-opacity:1;fill-rule:nonzero;stroke:none;stroke-width:0.62153494"
     d="M 92.958328,8.79608 V 0.35681 c 0,-0.16015 0.02678,-0.18695 0.170017,-0.18695 h 1.347466 c 1.330464,0 2.041839,0.21122 2.59782,0.77934 0.738067,0.73807 1.1071,1.89861 1.1071,3.45487 0,3.05912 -1.187228,4.56439 -3.588393,4.56439 h -1.463993 c -0.143237,0 -0.170017,-0.0268 -0.170017,-0.1723 m 1.05613,-0.73807 h 0.657956 c 1.145948,0 1.675237,-0.30349 2.019974,-1.1484 0.262214,-0.61911 0.36662,-1.35717 0.36662,-2.46672 0,-1.91072 -0.434591,-2.92801 -1.371744,-3.21693 -0.315632,-0.0923 -0.645817,-0.13355 -1.145966,-0.13355 h -0.52684 z m 0,0"
     id="path816"
     inkscape:connector-curvature="0" />
  <path
     style="clip-rule:nonzero;fill:#11306e;fill-opacity:1;fill-rule:nonzero;stroke:none;stroke-width:0.62153494"
     d="m 102.15511,1.06816 v 7.72792 c 0,0.14571 -0.0123,0.17231 -0.17002,0.17231 h -0.69924 c -0.15786,0 -0.18451,-0.0268 -0.18451,-0.17231 V 1.06816 h -1.87431 c -0.143237,0 -0.170017,-0.0268 -0.170017,-0.1723 V 0.35688 c 0,-0.16015 0.02678,-0.18452 0.170017,-0.18452 h 5.01356 c 0.13108,0 0.1723,0.0243 0.1723,0.1043 0,0.0123 0,0.0509 -0.0268,0.10448 l -0.18451,0.55355 c -0.0291,0.0923 -0.0946,0.13354 -0.18452,0.13354 z m 0,0"
     id="path820"
     inkscape:connector-curvature="0" />
</svg>
